<svg xmlns="http://www.w3.org/2000/svg" xmlns:xlink="http://www.w3.org/1999/xlink" width="24" height="24" viewBox="0 0 24 24" fill="none"><g opacity="1" transform="translate(0 0)  rotate(0 12 12)"><g opacity="1" transform="translate(0 0)  rotate(0 12 12)"><path id="形状" fill-rule="evenodd" style="fill:#D9D9D9" transform="translate(1.998046875 1.99951171875)  rotate(0 9.94921875 9.88037109375)" opacity="1" d="M0 10.8809C0.6 15.4109 5.12 19.0509 11 19.7609C8.72 17.1109 7.39 14.0509 7.17 10.8809L0 10.8809Z M0 8.88L6.52 8.88C6.72 5.71 7.92 2.65 10 0C4.65 0.71 0.54 4.35 0 8.88Z M19.9004 8.88C19.3004 4.35 14.7804 0.71 8.90039 0C11.1804 2.65 12.5104 5.71 12.7304 8.88L19.9004 8.88Z M19.9023 10.8809L13.3823 10.8809C13.1823 14.0509 11.9823 17.1109 9.90234 19.7609C15.2523 19.0509 19.3623 15.4109 19.9023 10.8809Z M7.48242 10.8809C7.64242 13.5809 8.49242 16.1909 9.95242 18.4709C11.4124 16.1909 12.2624 13.5809 12.4224 10.8809L7.48242 10.8809Z M7.48242 8.87906L12.4224 8.87906C12.2624 6.17906 11.4124 3.56906 9.95242 1.28906C8.49242 3.56906 7.64242 6.17906 7.48242 8.87906Z " /><g opacity="1" transform="translate(0 0)  rotate(0 12 12)"><path id="形状" fill-rule="evenodd" style="fill:#5E5E5E" transform="translate(2.00390625 2.0009765625)  rotate(0 9.9990234375 9.999755859375)" opacity="1" d="M9.99414 19.9985C15.5141 19.9985 19.9941 15.5185 19.9941 9.99854C19.9941 4.47854 15.5141 -0.00146484 9.99414 -0.00146484C4.47414 -0.00146484 -0.00585938 4.47854 -0.00585938 9.99854C-0.00585938 15.5185 4.47414 19.9985 9.99414 19.9985Z M2.05664 10.9995C2.45664 14.1395 4.66664 16.7595 7.70664 17.6695C6.71664 15.5695 6.14664 13.3095 6.01664 10.9995L2.05664 10.9995Z M11.9615 10.9995L8.02148 10.9995C8.17148 13.4395 8.87148 15.7295 9.99148 17.7495C11.1415 15.6795 11.8215 13.3695 11.9615 10.9995Z M12.2871 17.6695C15.3271 16.7595 17.5371 14.1395 17.9371 10.9995L13.9671 10.9995C13.8471 13.3095 13.2771 15.5695 12.2871 17.6695Z M7.70664 2.33203C4.66664 3.24203 2.45664 5.85203 2.05664 9.00203L6.01664 9.00203C6.14664 6.69203 6.71664 4.42203 7.70664 2.33203Z M9.99148 2.24707C8.84148 4.32707 8.16148 6.62707 8.02148 8.99707L11.9615 8.99707C11.8115 6.62707 11.1415 4.32707 9.99148 2.24707Z M17.9371 9.00203C17.5371 5.85203 15.3271 3.24203 12.2871 2.33203C13.2771 4.42203 13.8471 6.69203 13.9671 9.00203L17.9371 9.00203Z " /></g></g></g></svg>